<svg xmlns="http://www.w3.org/2000/svg" viewBox="0 0 100 100"><rect width="100" height="100" rx="20" fill="#f59e0b"/><g transform="translate(50,52)" fill="none" stroke="white" stroke-width="3" stroke-linecap="round" stroke-linejoin="round"><path d="M-25,-20 Q-28,-28 -22,-30 Q-15,-32 -10,-28 L-5,-22 Q0,-18 5,-22 L10,-28 Q15,-32 22,-30 Q28,-28 25,-20 L20,-12 Q18,-8 22,-4 L28,0 Q32,4 28,8 L22,10 Q18,12 15,8 L10,2 Q8,-2 5,2 L2,8 Q0,12 -2,8 L-5,2 Q-8,-2 -10,2 L-15,8 Q-18,12 -22,10 L-28,8 Q-32,4 -28,0 L-22,-4 Q-18,-8 -20,-12 Z"/><circle cx="-12" cy="-16" r="2.5" fill="white"/></g></svg>
