<svg xmlns="http://www.w3.org/2000/svg" viewBox="0 0 100 100">
  <rect width="100" height="100" rx="16" fill="#0f172a"/>
  <path d="M68 20c-3 0-6 1-8 3l-2 2c-1 1-1 3 0 4l2 2c1 1 1 3 0 4l-4 4c-1 1-2 3-2 5v4c0 2-1 4-3 5l-8 8v14c0 2-1 3-3 4l-4 2H32l-4-2c-2-1-3-2-3-4V55l-2-2c-1-1-1-3 0-4l2-2c1-1 1-3 0-4l-2-2c-1-2-2-4-2-6 0-4 2-7 5-9l6-4c1-1 2-3 2-5v-3c0-3 2-6 5-7l8-2c1-1 2-2 2-4l1-6c0-3 3-5 6-5h8c2 0 4 1 5 3l2 6c0 1 1 2 2 2h4c2 0 4 2 4 4v4c0 2 1 3 2 4l3 3c1 1 2 3 2 5 0 3-1 5-3 7l-3 3" fill="#f59e0b"/>
  <circle cx="56" cy="34" r="2.5" fill="#0f172a"/>
  <path d="M44 60l8 8v12l-6 4" fill="none" stroke="#f59e0b" stroke-width="3" stroke-linecap="round" stroke-linejoin="round"/>
  <path d="M64 60l-4 8v8l4 4" fill="none" stroke="#f59e0b" stroke-width="3" stroke-linecap="round" stroke-linejoin="round"/>
  <line x1="50" y1="84" x2="50" y2="94" stroke="#f59e0b" stroke-width="3" stroke-linecap="round"/>
  <line x1="38" y1="82" x2="36" y2="94" stroke="#f59e0b" stroke-width="3" stroke-linecap="round"/>
  <line x1="62" y1="82" x2="64" y2="94" stroke="#f59e0b" stroke-width="3" stroke-linecap="round"/>
</svg>