<svg xmlns="http://www.w3.org/2000/svg" viewBox="0 0 100 100">
  <rect width="100" height="100" rx="16" fill="#0f172a"/>
  <path d="M50 18c-6 0-11 2-15 6l-8 8c-2 2-3 5-2 8l3 10c1 3 3 5 6 6l1 1v18c0 2 1 4 3 5l2 1h20l2-1c2-1 3-3 3-5V57l1-1c3-1 5-3 6-6l3-10c1-3 0-6-2-8l-8-8c-4-4-9-6-15-6z" fill="#f59e0b"/>
  <circle cx="42" cy="40" r="3" fill="#0f172a"/>
  <circle cx="58" cy="40" r="3" fill="#0f172a"/>
  <path d="M45 48c0 3 2 5 5 5s5-2 5-5" fill="none" stroke="#0f172a" stroke-width="1.5" stroke-linecap="round"/>
  <path d="M35 75l-5 12" stroke="#f59e0b" stroke-width="3" stroke-linecap="round"/>
  <path d="M65 75l5 12" stroke="#f59e0b" stroke-width="3" stroke-linecap="round"/>
</svg>
