<svg xmlns="http://www.w3.org/2000/svg" viewBox="0 0 100 100">
  <rect width="100" height="100" rx="16" fill="#0f172a"/>
  <g fill="#f59e0b">
    <path d="M20 60c-2 0-4-1-5-3l-5-8c-1-2-1-4 0-6l3-4c1-1 2-2 4-2h2c2 0 4 1 5 2l2 2c1 1 2 1 3 0l1-1c1-2 3-3 5-3 2 0 4 1 5 3l6 10c1 2 3 3 5 3h12c2 0 4 1 5 2l4 4c1 1 2 3 2 5v2c0 2-1 4-2 5l-2 2c-1 1-2 2-4 2-2 0-4-1-5-2l-3-3c-1-1-2-1-3-1H54c-3 0-5 2-5 4l-2 6c0 2-1 3-2 4l-4 2c-1 1-3 1-4 0l-4-2c-2-1-3-3-3-5v-4"/>
    <path d="M32 48c0-3 2-5 5-5s5 2 5 5-2 5-5 5-5-2-5-5z"/>
    <circle cx="37" cy="48" r="2" fill="#0f172a"/>
    <path d="M60 36c2-2 5-3 8-2l6 2c2 1 3 3 3 5v2c0 2-1 4-3 5l-4 2"/>
    <line x1="44" y1="70" x2="40" y2="88" stroke="#f59e0b" stroke-width="3" stroke-linecap="round"/>
    <line x1="44" y1="70" x2="56" y2="88" stroke="#f59e0b" stroke-width="3" stroke-linecap="round"/>
    <line x1="44" y1="70" x2="48" y2="88" stroke="#f59e0b" stroke-width="3" stroke-linecap="round"/>
  </g>
</svg>
